# xmcd
#
# Track frame offsets:
#	150
#	17850
#	36375
#	50175
#	66675
#	81150
#	94950
#	110175
#	125550
#	143250
#	161775
#	175575
#	192075
#	206550
#	220350
#	235575
#
# Disc length: 3346 seconds
#
# Revision: 2
# Processed by: cddbd v1.5.2PL0 Copyright (c) Steve Scherf et al.
# Submitted via: audiograbber 1.83.01
#
DISCID=f10d1010
DTITLE=Party Tyme Kraoke - SYB1640 Country Gold Vol.01
DYEAR=2000
DGENRE=Country/Karaoke
TTITLE0=Willie Nelson - Always on My Mind
TTITLE1=Kenny Rogers - The Gambler
TTITLE2=Crystal  Gayle - Don't It Make My Brown Eyes Blue
TTITLE3=John Denver - Take Me Home, Country Roads
TTITLE4=Patsy Cline - I Fall To Pieces
TTITLE5=Glen Campbell - By The Time I Get To Phoenix
TTITLE6=Tanya Tucker - Delta Dawn
TTITLE7=Hank Williams Sr. - Hey Good Looking
TTITLE8=Willie Nelson - Always On My Mind (With Lead Vocals)
TTITLE9=Kenny Rogers - The Gambler (With Lead Vocals)
TTITLE10=Crystal Gayle - Don't It Make My Brown Eyes Blue (With Lead Vocals)
TTITLE11=John Denver - Take Me Home, Country Roads (With Lead Vocals)
TTITLE12=Patsy Cline - I Fall To Pieces (With Lead Vocals)
TTITLE13=Glen Campbell - By The Time I Get To Phoenix (With Lead Vocals)
TTITLE14=Tanya Tucker - Delta Dawn (With Lead Vocals)
TTITLE15=Hank Williams Sr. - Hey Good Lookin' (With Lead Vocals)
EXTD=Tracks 9-16 with lead vocals are NOT the original artist... Multiplex vers
EXTD=ions to remove lead vocals from these tracks turn down you left channel.
EXTT0=
EXTT1=
EXTT2=
EXTT3=
EXTT4=
EXTT5=
EXTT6=
EXTT7=
EXTT8=
EXTT9=
EXTT10=
EXTT11=
EXTT12=
EXTT13=
EXTT14=
EXTT15=
PLAYORDER=
